<svg id="Capa_1" data-name="Capa 1" xmlns="http://www.w3.org/2000/svg" viewBox="0 0 486 486"><defs><style>.cls-1{fill:#031417;stroke:#1d2021;stroke-miterlimit:10;stroke-width:3px;}.cls-2{opacity:0.9;}.cls-3{fill:#689d6a;}.cls-4{fill:#4b8587;}.cls-5{fill:#d79824;}.cls-6{fill:#cc251d;}.cls-7{opacity:0.22;isolation:isolate;}.cls-8{fill:#427b58;}.cls-9{fill:#282828;}</style></defs><title>icon</title><path class="cls-1" d="M491.5,250a242.55,242.55,0,0,1-4,44A239.38,239.38,0,0,1,475,338c-35.17,89.86-122.63,153.5-225,153.5S60.21,427.86,25,338A239.38,239.38,0,0,1,12.5,294a244,244,0,0,1,0-88A239.38,239.38,0,0,1,25,162C60.21,72.14,147.67,8.5,250,8.5S439.79,72.14,475,162a239.38,239.38,0,0,1,12.54,44A242.55,242.55,0,0,1,491.5,250Z" transform="translate(-7 -7)"/><g class="cls-2"><path class="cls-3" d="M487.5,206H12.5A239.38,239.38,0,0,1,25,162H475A239.38,239.38,0,0,1,487.5,206Z" transform="translate(-7 -7)"/><path class="cls-4" d="M491.5,250H8.5a242.55,242.55,0,0,1,4-44h475A242.55,242.55,0,0,1,491.5,250Z" transform="translate(-7 -7)"/><path class="cls-5" d="M491.5,250a242.55,242.55,0,0,1-4,44H12.5a242.55,242.55,0,0,1-4-44Z" transform="translate(-7 -7)"/><path class="cls-6" d="M487.5,294A239.38,239.38,0,0,1,475,338H25A239.38,239.38,0,0,1,12.5,294Z" transform="translate(-7 -7)"/></g><g class="cls-7"><path class="cls-8" d="M123.26,441.09c8.72-13.41,17.63-26.91,26.5-40.14,8-11.86,16.07-23.86,24.1-35.66l-.12-.09c-9.35,12.34-18.9,24.8-28.38,37-9.75,12.65-19.73,25.39-29.67,37.87,8.69-13.4,17.6-26.9,26.5-40.15,9.17-13.65,18.52-27.48,27.8-41.1,18.59-27.2,37.6-54.64,56.5-81.54l4.93-7c-1.63-10.38-3.26-20.88-4.83-31.26-3.23-21-6.36-42.34-9.29-63.38v-.09l-.09,0c-19.8,7-39.89,14-59.7,20.8-21.43,7.41-43.23,14.77-64.84,21.88,14.54-6.09,29.29-12.2,43.87-18.15l-.05-.14c-17,5.83-34.29,11.64-51.39,17.27,21-8.8,42.26-17.56,63.28-26.07,21.57-8.72,43.53-17.5,65.28-26.08l2-.8-1.24-9.54q-.42-3.25-.86-6.52c-.46-3.45-.92-6.9-1.35-10.36q-1.1-8.46-2.13-16.9l-1-8.47-.62-4.94.36-.06,1.06,4.91,1.89,8.31q1.25,5.55,2.45,11.1l1.22,5.54q1.32,6.06,2.6,12.12l1,4.53,1.75,8.32,2-.79-.73-5.72-.78-6q-.74-5.46-1.43-10.92L217.68,122l-1.5-12.69-.34-3,.69,2.93,2.84,12.49q1.11,5,2.2,10c.49,2.21,1,4.42,1.46,6.63.93,4.21,1.82,8.42,2.72,12.62l.86,4,1,4.62.08,0c17.11-6.72,34.51-13.5,51.7-20.18,21.85-8.47,44-17,65.86-25.29l17-6.52L358.44,113l11.41-4.34-10.61,14.94-7.19,10.13-7.21,10.1-14.46,20.21-8.07,11.21c-6.87,9.55-14,19.41-21,29.08-16.83,23.2-34,46.67-51.09,69.76q2.89,15.69,5.75,31.3l.19,1c1.9,10.64,3.86,21.65,4.84,32.61l1.7,10.57.1-.13c8.29-10.11,15.75-20.2,23-29.95l11-14.87,9.54-12.78c4.47-6,9.05-12.1,13.49-18,1.89-2.51,3.78-5,5.66-7.53,12.74-16.87,25.8-33.92,38.82-50.68,6.45-8.29,13.08-16.74,19.7-25.12,6.28-8,12.74-16,19.2-23.9-5.49,8.59-11.1,17.24-16.69,25.71-5.87,8.9-11.82,17.85-17.69,26.58q-3.87,5.76-7.76,11.51l.12.08q5.35-6.93,10.71-13.84c6.5-8.38,13.13-16.83,19.71-25.12,6.28-8,12.74-16,19.21-23.92-5.45,8.56-11.06,17.22-16.68,25.73-5.81,8.8-11.75,17.74-17.68,26.58-11.85,17.58-24,35.32-36,52.73q-2.73,3.93-5.45,7.85c-4.17,6-8.49,12.24-12.78,18.34L313.07,312l-9.21,13c-12.19,17.2-24.68,34.67-37.12,51.93l-8.2,11.34-1.47-9.15-5.58,7.77-2.36-13.58-2.26-8.26-1-8.46-3.1-16.74a322,322,0,0,1-4.48-33.75l-1.94-12-.1.13c-14.05,18-27.71,36-40.92,53.47q-6.15,8.1-12.28,16.2c-10,13.1-20.12,26.35-30.17,39.39C143.17,415.91,133.19,428.64,123.26,441.09Zm204.57-305q-18.72,6.79-37.46,13.52c-20,7.2-40.31,14.43-60.33,21.49l.06.6c4.56,22.14,9.05,44.61,13.33,66.77q1.13,5.78,2.22,11.54l0,.17.1-.14c12.62-17.78,25.53-35.81,38.37-53.6,6.75-9.4,13.66-18.91,20.35-28.11l8.8-12.14L328.06,136ZM223.15,173.53c1.26,6.42,2.56,12.75,3.84,19.09l.14,0q-1.4-9.71-2.73-19.41v-.09Z" transform="translate(-7 -7)"/><path class="cls-9" d="M216.06,107.59l.4,1.71.94,4.15,1.9,8.33q1.11,5,2.21,10.06c.48,2.19,1,4.39,1.45,6.58.93,4.22,1.84,8.52,2.73,12.67l.85,4,.94,4.54,0,.17.17-.07c17.13-6.71,34.53-13.5,51.7-20.17,21.82-8.46,44-17,65.86-25.29l16.8-6.43-3.53,5-.28.4.46-.17,10.94-4.17-10.46,14.73L352,133.72l-7.21,10.1L330.32,164l-8.16,11.33c-6.84,9.51-13.91,19.34-20.93,29-16.84,23.23-34,46.7-51.08,69.76l0,.06,0,.06c1.92,10.36,3.86,20.87,5.76,31.24l.18,1c1.9,10.65,3.87,21.67,4.85,32.65l1.67,10.39.05.33.21-.25c8.29-10.12,15.75-20.2,23-30l1.52-2.05,9.49-12.81L306.37,292c4.45-6,9-12.06,13.44-17.92l5.71-7.59c12.76-16.91,25.82-34,38.82-50.68,6.51-8.37,13.14-16.82,19.7-25.12,6-7.64,12.21-15.33,18.38-22.9-5.26,8.22-10.63,16.49-16,24.62-5.83,8.85-11.78,17.79-17.68,26.58-2.57,3.83-5.18,7.7-7.76,11.5l.24.18c3.55-4.6,7.15-9.26,10.71-13.85,6.5-8.36,13.13-16.82,19.71-25.11,6-7.66,12.22-15.36,18.4-22.94-5.25,8.24-10.62,16.53-16,24.66-5.84,8.84-11.79,17.78-17.69,26.58-11.84,17.56-23.94,35.31-36,52.73l-5.45,7.84c-4.17,6-8.49,12.25-12.78,18.34L313,311.94l-9.21,13c-12.24,17.28-24.73,34.75-37.12,51.94l-8.09,11.19-1.42-8.8-.05-.36-.22.3-5.37,7.48-2.33-13.42L247,365.06l-1-8.48-3.09-16.74a321.32,321.32,0,0,1-4.49-33.75l-1.91-11.86-.05-.34-.21.27c-14.06,18-27.73,36-40.94,53.49q-6.13,8.1-12.26,16.17c-10,13.1-20.12,26.36-30.17,39.39-9.42,12.22-19.06,24.53-28.69,36.62,8.43-13,17-26,25.64-38.84,8-11.86,16.07-23.86,24.11-35.66l-.25-.17c-9.34,12.33-18.89,24.79-28.38,37s-19.07,24.55-28.71,36.65c8.43-13,17.06-26,25.66-38.85,9.18-13.68,18.54-27.5,27.8-41.1,18.58-27.18,37.59-54.61,56.5-81.54l4.93-7,0-.05v-.06c-1.65-10.34-3.28-20.84-4.85-31.2-3.22-21-6.35-42.33-9.28-63.38l0-.18-.17.06c-19.79,7-39.87,14-59.71,20.8-20.84,7.21-42,14.37-63,21.29,14-5.86,28.12-11.71,42.11-17.42l-.1-.29c-16.41,5.63-33.07,11.24-49.58,16.68,20.4-8.54,41.08-17.06,61.52-25.33,21.61-8.74,43.57-17.52,65.27-26.08l2-.8.11-.05,0-.11-1.28-9.46c-.29-2.15-.57-4.3-.86-6.46-.45-3.41-.92-6.94-1.36-10.42-.72-5.61-1.43-11.3-2.13-16.9l-1-8.47-.61-4.87.22,0,1.05,4.83,1.89,8.31q1.25,5.58,2.45,11.14c.41,1.83.81,3.67,1.21,5.5.9,4.07,1.77,8.2,2.62,12.19.32,1.49.64,3,.95,4.46l1.73,8.24,0,.17.17-.06,1.92-.76.11,0,0-.12-.77-5.64c-.26-2-.53-4-.79-6-.48-3.57-1-7.27-1.43-10.9L217.76,122l-1-8.46-.5-4.23-.19-1.74m29.58,142.79.2-.29c12.66-17.83,25.57-35.87,38.37-53.6,6.74-9.37,13.63-18.87,20.3-28.05q4.42-6.09,8.85-12.19l14.62-20,.29-.4-.47.17c-12.42,4.5-25,9.05-37.45,13.52-20,7.19-40.3,14.42-60.33,21.49l-.13,0,0,.13.11.52c4.56,22.14,9.05,44.6,13.33,66.77q1.13,5.76,2.21,11.53l.07.35m-18.73-57.74.3,0c-.93-6.44-1.85-13-2.74-19.41l0-.18-.18.06-.4.14-.74.26-.13,0,0,.12c1.3,6.3,2.61,12.7,3.88,19m-11.28-87.53.47,4.24.5,4.23,1,8.46q1.06,8.46,2.12,16.91c.72,5.63,1.48,11.26,2.22,16.89l.77,5.64-1.92.76L219.07,154c-1.19-5.55-2.35-11.1-3.57-16.65s-2.43-11.09-3.66-16.64l-1.9-8.31-1.08-5-.49.08.63,5,1,8.47q1,8.45,2.12,16.9c.71,5.63,1.48,11.26,2.22,16.88l1.29,9.46-2,.8q-32.7,12.9-65.28,26.08t-65,26.81q26.66-8.78,53.18-17.87-22.84,9.33-45.61,18.89,33.42-11,66.63-22.48,29.89-10.31,59.71-20.8,4.43,31.74,9.28,63.38,2.37,15.61,4.85,31.21c-1.65,2.33-3.29,4.67-4.93,7q-28.52,40.59-56.5,81.54-14,20.5-27.8,41.11t-27.34,41.43q15.48-19.4,30.62-39.06,14.31-18.43,28.39-37Q161.68,383,149.69,400.91q-13.8,20.61-27.33,41.44Q137.84,422.94,153,403.3t30.17-39.38c17.5-23.05,34.86-46.22,53.2-69.67l1.9,11.86a324.55,324.55,0,0,0,4.49,33.76l3.09,16.74,1,8.47,2.26,8.25,2.39,13.75,5.58-7.76,1.47,9.16,8.3-11.5q18.68-25.89,37.12-51.93l9.21-13L322.28,299c6.12-8.7,12.16-17.45,18.23-26.18q18.14-26.26,36-52.74,8.89-13.24,17.68-26.58t17.36-26.8q-10.12,12.38-20,24.9t-19.71,25.12q-5.35,6.91-10.71,13.85,3.9-5.75,7.76-11.51,8.89-13.25,17.69-26.57t17.38-26.8q-10.11,12.36-20,24.89t-19.7,25.13q-19.59,25.2-38.82,50.68c-6.39,8.5-12.81,17-19.15,25.51l-9.54,12.79-9.49,12.81c-7.83,10.58-15.62,21.19-24.48,32l-1.67-10.39c-1-11.32-3-22.5-5-33.67q-2.85-15.61-5.76-31.24Q276,239.41,301.36,204.4c9.75-13.38,19.4-26.85,29.08-40.29l14.46-20.2,7.21-10.11,7.19-10.13,10.75-15.14-11.4,4.35,3.81-5.37-17.27,6.6q-33,12.52-65.86,25.29-25.86,10-51.7,20.18l-.95-4.54c-1.18-5.55-2.35-11.1-3.58-16.65s-2.42-11.09-3.66-16.64l-1.89-8.33-1-4.16-1-4.15ZM245.72,250q-1.09-5.77-2.21-11.54-6.47-33.4-13.34-66.77l-.1-.52q30.19-10.65,60.33-21.48,18.74-6.75,37.45-13.53l-14.61,20c-9.72,13.41-19.48,26.79-29.15,40.24Q264.8,223.13,245.72,250Zm-18.66-57.4q-1.92-9.51-3.88-19l.74-.26.4-.14q1.35,9.7,2.74,19.41Z" transform="translate(-7 -7)"/></g><path class="cls-8" d="M121.12,426.86c8.75-13.44,17.66-26.94,26.49-40.15,7.94-11.84,16.06-23.84,24.11-35.66l-.12-.09c-9.35,12.32-18.9,24.78-28.39,37-9.73,12.63-19.71,25.36-29.67,37.86,8.68-13.38,17.59-26.88,26.5-40.15,9.17-13.65,18.52-27.48,27.8-41.1,18.59-27.2,37.6-54.63,56.51-81.54,1.63-2.33,3.28-4.67,4.92-7-1.63-10.44-3.27-20.94-4.83-31.26-3.23-21-6.35-42.32-9.28-63.39l0-.09-.08,0c-19.74,6.95-39.83,13.95-59.7,20.8-21.43,7.41-43.23,14.77-64.84,21.89,14.57-6.11,29.33-12.22,43.89-18.16l0-.14c-17,5.83-34.29,11.64-51.4,17.27,20.94-8.77,42.22-17.53,63.28-26.05,21.64-8.76,43.6-17.54,65.27-26.09l2-.8-1.24-9.53c-.28-2.15-.57-4.31-.85-6.46q-.7-5.21-1.37-10.43-1.08-8.44-2.12-16.9l-1-8.47-.4-3.55.22,0,.84,3.53,1.89,8.32q1.23,5.56,2.45,11.12l1.21,5.52c.89,4,1.74,8.06,2.6,12.09l1,4.56,1.75,8.32,2-.79-.72-5.72c-.26-2-.53-4-.79-6-.48-3.64-1-7.29-1.43-10.93l-2.12-16.91L213.9,95.17l-.33-3,.68,2.92,2.84,12.45q1.11,5,2.2,10c.48,2.22,1,4.43,1.46,6.65.93,4.21,1.82,8.41,2.72,12.62l.86,4,1,4.62.09,0c17.24-6.76,34.64-13.55,51.7-20.17,21.87-8.47,44-17,65.86-25.3l17-6.49-3.81,5.36,11.41-4.34L357,109.44l-7.19,10.13-7.21,10.1L328.1,149.88,320,161.17c-6.85,9.52-13.94,19.36-21,29-16.83,23.2-34,46.67-51.09,69.76,1.92,10.47,3.84,20.88,5.74,31.3l.89,5c1.69,9.35,3.43,19,5,28.55l1.69,10.57.11-.14c5.57-7.43,11.13-14.95,16.5-22.22q3.56-4.83,7.13-9.65l9.49-12.82L304,277.7c4.45-6,9-12,13.42-17.89l5.74-7.62C336,235.28,349,218.24,362,201.53c6.46-8.3,13.09-16.75,19.7-25.12,6.32-8,12.77-16,19.2-23.91-5.48,8.6-11.1,17.24-16.69,25.72-5.84,8.86-11.79,17.8-17.69,26.58q-3.87,5.76-7.76,11.51l.12.08q5.36-6.93,10.71-13.84c6.47-8.34,13.1-16.79,19.71-25.12,6.29-8,12.75-16,19.2-23.92-5.49,8.6-11.1,17.25-16.69,25.71C386,188.11,380,197.05,374.13,205.8c-11.84,17.57-23.95,35.31-36,52.73L333,266c-4.26,6.14-8.66,12.48-13,18.69l-9.14,13.07-9.21,13c-12.28,17.31-24.76,34.78-37.11,51.91l-7.36,11.2-1.47-9.15-5.58,7.77L247.7,359l-3-8.15-1-8.45-3.11-16.74c-1.89-11-3.73-22.32-5.48-33.6l-1.93-12-.11.14c-19.76,26.54-36.35,48.63-52.2,69.51C171,362.75,160.83,376,150.78,389,141,401.7,131.05,414.42,121.12,426.86Zm204.43-305q-18.72,6.79-37.46,13.53c-20,7.2-40.31,14.43-60.33,21.49l.06.6c4.56,22.13,9.05,44.59,13.33,66.79q1.13,5.74,2.22,11.51l0,.17.1-.14c12.61-17.77,25.52-35.8,38.37-53.59,6.63-9.23,13.42-18.57,20-27.61L311,142l14.76-20.21ZM220.87,159.34c1.26,6.42,2.56,12.75,3.84,19.09l.14,0q-1.4-9.69-2.73-19.4v-.09Z" transform="translate(-7 -7)"/><path class="cls-9" d="M213.78,93.42l.4,1.71.94,4.14,1.9,8.31q1.11,5,2.2,10,.74,3.3,1.45,6.62c.94,4.22,1.85,8.52,2.74,12.67l.84,4,.95,4.53,0,.17.16-.06c17.16-6.73,34.55-13.51,51.71-20.17,21.82-8.46,44-17,65.86-25.3l16.79-6.4-3.52,5L356,99l.46-.17,10.94-4.17L356.9,109.4l-7.19,10.13-7.21,10.1L328,149.83l-8.1,11.26c-6.86,9.53-14,19.38-21,29-16.84,23.23-34,46.7-51.09,69.76l0,.05V260c1.92,10.36,3.86,20.87,5.76,31.24l.9,5c1.68,9.34,3.42,19,5,28.5l1.67,10.39.06.35.21-.28c5.59-7.46,11.17-15,16.55-22.29q3.54-4.8,7.08-9.57l9.49-12.83,9.53-12.78c4.46-6,9-12.07,13.45-17.93l5.71-7.59c12.76-16.89,25.82-33.93,38.82-50.65,6.5-8.36,13.13-16.82,19.7-25.13,6-7.63,12.21-15.33,18.38-22.9-5.26,8.23-10.63,16.5-16,24.63-5.84,8.85-11.79,17.79-17.69,26.58-2.57,3.82-5.18,7.69-7.76,11.5l.24.18c3.54-4.6,7.15-9.26,10.71-13.85,6.49-8.37,13.12-16.82,19.71-25.12,6-7.65,12.21-15.35,18.38-22.92-5.25,8.23-10.63,16.5-16,24.63C385.92,188,380,197,374.07,205.76c-11.84,17.57-23.95,35.31-36,52.73l-5.16,7.44c-4.27,6.15-8.68,12.52-13.07,18.74l-9.13,13.07-9.21,13c-12.25,17.27-24.73,34.74-37.11,51.92l-7.26,11L255.74,365l-.05-.36-.21.3-5.38,7.48-2.33-13.43-3-8.11-1-8.48-3.1-16.73c-1.89-11-3.74-22.3-5.49-33.6l-1.9-11.86-.06-.35-.21.28c-19.75,26.53-36.34,48.62-52.2,69.51-10,13.1-20.13,26.35-30.18,39.39-9.41,12.22-19.05,24.52-28.68,36.6,8.44-13,17.06-26,25.63-38.84,8-11.85,16.07-23.85,24.11-35.66l-.24-.17c-9.36,12.33-18.91,24.79-28.39,37s-19.07,24.55-28.7,36.65c8.42-13,17-26,25.66-38.85,9.18-13.67,18.53-27.5,27.79-41.1,18.58-27.18,37.59-54.61,56.51-81.54l4.93-7,0-.05V256c-1.64-10.34-3.28-20.84-4.85-31.2-3.22-21-6.35-42.33-9.28-63.39l0-.18-.17.06c-19.78,7-39.87,14-59.7,20.8-20.84,7.21-42,14.37-63,21.29,14-5.85,28.13-11.71,42.13-17.42l-.11-.28c-16.4,5.62-33.06,11.22-49.57,16.67,20.39-8.54,41.07-17,61.5-25.31,21.62-8.75,43.58-17.53,65.28-26.09l2-.8.11,0,0-.12-1.29-9.45c-.28-2.15-.56-4.31-.85-6.46-.45-3.42-.92-7-1.36-10.43-.72-5.61-1.44-11.29-2.13-16.9l-1-8.46-.39-3.48.08,0,.82,3.47,1.89,8.31q1.25,5.58,2.46,11.16c.4,1.83.8,3.65,1.21,5.48.89,4.05,1.76,8.17,2.61,12.15l1,4.5,1.73,8.24,0,.17.17-.06,1.92-.76.11,0,0-.12-.77-5.64q-.39-3-.79-6c-.47-3.58-1-7.27-1.42-10.91l-2.13-16.91-1-8.46L214,95.16l-.19-1.74m29.58,142.76.2-.29c12.66-17.83,25.57-35.86,38.37-53.58,6.62-9.22,13.4-18.55,20-27.58l9.2-12.67,14.6-20,.29-.4-.46.17c-12.41,4.5-25,9-37.45,13.53-20,7.19-40.3,14.42-60.33,21.48l-.13,0,0,.13.11.52c4.56,22.13,9.05,44.6,13.33,66.78q1.11,5.76,2.21,11.52l.07.34m-18.73-57.73.3-.06c-.93-6.42-1.85-12.95-2.74-19.4l0-.18-.17.06-.41.14-.28.1-.46.16-.13,0,0,.13c1.3,6.29,2.61,12.69,3.88,19M213.35,91l.47,4.23.51,4.23,1,8.46,2.13,16.91c.71,5.63,1.48,11.25,2.21,16.89l.77,5.64-1.92.76-1.73-8.24c-1.18-5.55-2.35-11.1-3.57-16.65s-2.42-11.09-3.66-16.64l-1.89-8.31-.86-3.61-.35.06.4,3.62,1,8.47q1,8.45,2.13,16.9c.71,5.64,1.48,11.26,2.21,16.89L213.5,150l-2,.8q-32.68,12.9-65.27,26.09t-65,26.79q26.67-8.77,53.2-17.87-22.86,9.33-45.62,18.89,33.4-11,66.62-22.48,29.9-10.3,59.7-20.79,4.42,31.73,9.29,63.38,2.35,15.62,4.84,31.2l-4.93,7q-28.5,40.58-56.5,81.54-14,20.49-27.8,41.1t-27.34,41.44Q128.12,407.7,143.27,388q14.29-18.45,28.38-37-12.1,17.79-24.1,35.66-13.8,20.63-27.34,41.45,15.49-19.39,30.63-39T181,349.7q26.25-34.59,52.2-69.52l1.91,11.87q2.6,16.8,5.48,33.59l3.11,16.74.95,8.47,3,8.14L250,372.74,255.6,365l1.47,9.16,7.46-11.35q18.66-25.89,37.11-51.92l9.21-13L320,284.76c6.12-8.7,12.16-17.45,18.23-26.18q18.12-26.26,36-52.73,8.9-13.26,17.69-26.59t17.37-26.79q-10.12,12.38-20,24.91T369.53,202.5q-5.36,6.92-10.7,13.85,3.89-5.74,7.76-11.51,8.88-13.25,17.68-26.58t17.38-26.8q-10.11,12.38-20,24.9t-19.7,25.13q-19.59,25.19-38.82,50.65c-6.39,8.51-12.82,17-19.16,25.52l-9.53,12.78-9.49,12.83c-7.84,10.58-15.62,21.19-23.63,31.86l-1.67-10.39c-1.85-11.18-3.89-22.35-5.89-33.53Q250.89,275.6,248,260q25.71-34.76,51.09-69.76c9.75-13.39,19.4-26.85,29.09-40.29l14.45-20.2,7.21-10.1L357,109.48l10.75-15.14-11.4,4.35,3.8-5.37L342.91,99.9q-33,12.55-65.86,25.3-25.86,10-51.7,20.17l-.95-4.54c-1.19-5.55-2.35-11.1-3.58-16.65s-2.42-11.09-3.66-16.63l-1.89-8.32-.94-4.13-1-4.15Zm30.09,144.86q-1.09-5.76-2.21-11.52-6.47-33.42-13.34-66.78l-.1-.52q30.2-10.65,60.33-21.49,18.74-6.74,37.45-13.53L311,142c-9.72,13.41-19.48,26.78-29.15,40.24q-19.29,26.7-38.37,53.59Zm-18.66-57.39q-1.92-9.51-3.88-19l.74-.26.4-.14q1.35,9.7,2.74,19.41Z" transform="translate(-7 -7)"/></svg>